<?xml version="1.0" encoding="utf-8"?>
<!-- Generator: Adobe Illustrator 16.0.4, SVG Export Plug-In . SVG Version: 6.00 Build 0)  -->
<!DOCTYPE svg PUBLIC "-//W3C//DTD SVG 1.1//EN" "http://www.w3.org/Graphics/SVG/1.1/DTD/svg11.dtd">
<svg version="1.1" id="Ebene_1" xmlns="http://www.w3.org/2000/svg" xmlns:xlink="http://www.w3.org/1999/xlink" x="0px" y="0px"
	 width="283.46px" height="283.46px" viewBox="0 0 283.46 283.46" enable-background="new 0 0 283.46 283.46" xml:space="preserve">
<circle fill="#94B545" cx="143.4" cy="92.188" r="66.113"/>
<g id="podstock_logo">
	<path fill-rule="evenodd" clip-rule="evenodd" d="M159.312,156.307c-0.271,8.502-7.242,15.312-15.809,15.312
		c-8.532,0-15.48-6.748-15.81-15.196c-13.917-6.058-23.65-19.928-23.65-36.075c0-21.719,17.607-39.326,39.331-39.326
		c21.718,0,39.324,17.607,39.324,39.326C182.698,136.393,173.089,150.191,159.312,156.307z M143.374,86.368
		c-18.771,0-33.984,15.213-33.984,33.979c0,18.767,15.213,33.98,33.984,33.98c18.766,0,33.979-15.213,33.979-33.98
		C177.354,101.581,162.14,86.368,143.374,86.368z M127.677,147.105v-6.369c1.262,1.291,2.629,2.447,4.079,3.441v-4.209
		c-1.506-1.509-2.877-3.253-4.079-5.139v-14.222c0-8.738,7.083-15.821,15.826-15.821c8.737,0,15.822,7.083,15.822,15.821v13.813
		c-1.107,1.791-2.364,3.461-3.744,4.936v4.406c1.328-0.968,2.581-2.075,3.744-3.294v6.427c-4.651,3.867-10.112,6.287-15.951,6.287
		C137.636,153.183,132.271,150.849,127.677,147.105z"/>
	<path fill-rule="evenodd" clip-rule="evenodd" fill="#FFFFFF" d="M189.311,79.679c-3.57,1.241-7.31,2.165-11.19,2.723
		c-16.798,2.415-32.966-2.411-45.352-12.11c9.735,8.523,22.093,13.957,35.429,15.065c-5.133,5.31-12.001,9.019-19.877,10.151
		c-18.865,2.711-36.352-10.38-39.063-29.239c-0.388-2.698-0.45-5.366-0.22-7.968c-0.554-1.092-0.944-2.291-1.128-3.57
		c-0.905-6.297,3.465-12.137,9.763-13.042c6.297-0.905,12.136,3.466,13.042,9.763c0.663,4.61-1.504,8.971-5.182,11.334
		c0.047,0.058,0.095,0.116,0.142,0.173c4.638-2.243,7.553-7.221,6.977-12.574c10.673-0.881,20.991,1.107,30.149,5.354
		c4.062-3.875,7.156-8.703,8.948-14.069c2.972,4.27,5.021,9.278,5.812,14.778c0.443,3.082,0.461,6.125,0.104,9.075
		C182.21,69.59,186.154,74.352,189.311,79.679z M112.996,67.449c1.016-1.201,2.188-2.288,3.338-3.227
		c-1.443-0.386-2.787-1.05-3.963-1.938C112.409,63.859,112.575,65.646,112.996,67.449z"/>
</g>
<g id="podstock_wortmarke">
	<g>
		<g>
			<path fill="#94B545" d="M32.815,190.633c-3.187-2.624-7.007-3.938-11.464-3.938H7.286v34.662h13.222v-7.525
				c0.066,0,0.131,0.008,0.198,0.023c0.066,0.018,0.148,0.024,0.248,0.024c0.066,0,0.131,0.01,0.198,0.026
				c0.065,0.018,0.131,0.024,0.198,0.024c4.457,0,8.278-1.338,11.464-4.011c3.185-2.674,4.779-5.875,4.779-9.605
				C37.594,196.485,36,193.257,32.815,190.633z M23.827,202.914c-0.727,0.809-1.634,1.213-2.724,1.213h-0.595v-8.27h0.595
				c1.089,0,1.997,0.388,2.724,1.164c0.726,0.776,1.089,1.741,1.089,2.896C24.916,201.106,24.552,202.105,23.827,202.914z
				 M57.303,186.695c-5.019,0-9.334,1.75-12.95,5.25c-3.615,3.499-5.422,7.726-5.422,12.677c0,4.919,1.808,9.11,5.422,12.577
				c3.616,3.466,7.932,5.199,12.95,5.199c5.051,0,9.376-1.733,12.975-5.199c3.598-3.467,5.398-7.658,5.398-12.577
				c0-4.951-1.8-9.178-5.398-12.677C66.679,188.445,62.354,186.695,57.303,186.695z M60.547,210.241
				c-0.908,1.536-1.989,2.303-3.244,2.303c-1.255,0-2.328-0.767-3.219-2.303c-0.892-1.535-1.337-3.407-1.337-5.619
				c0-2.211,0.446-4.109,1.337-5.693c0.891-1.585,1.964-2.378,3.219-2.378c1.254,0,2.335,0.793,3.244,2.378
				c0.908,1.584,1.362,3.482,1.362,5.693C61.909,206.834,61.455,208.706,60.547,210.241z M95.188,187.19H77.26v34.662l17.927-0.05
				c4.556,0,8.444-1.691,11.663-5.075c3.219-3.382,4.829-7.469,4.829-12.255c0-4.753-1.61-8.822-4.829-12.206
				S99.744,187.19,95.188,187.19z M95.114,208.633c-1.107,1.154-2.436,1.782-3.987,1.882v-11.983
				c1.551,0.033,2.88,0.638,3.987,1.808c1.105,1.172,1.659,2.55,1.659,4.134C96.772,206.091,96.219,207.477,95.114,208.633z
				 M138.914,185.756c-0.396-0.033-0.775-0.05-1.139-0.05c-3.399,0-6.445,1.155-9.135,3.465c-2.691,2.312-4.333,5.284-4.928,8.914
				l-1.733,9.557c-0.099,0.662-0.396,1.207-0.892,1.634c-0.495,0.431-1.057,0.645-1.683,0.645h-0.223
				c-0.083,0-0.173-0.017-0.272-0.05c-0.033,0-0.363-0.064-0.99-0.197c-0.627-0.132-1.305-0.265-2.031-0.397
				c-0.033,0-0.066-0.007-0.099-0.024c-0.033-0.016-0.067-0.024-0.1-0.024c-0.726-0.131-1.37-0.264-1.931-0.396
				c-0.562-0.131-0.859-0.215-0.891-0.249l0.495,12.626c0.099,0.034,0.198,0.059,0.297,0.074c0.099,0.017,0.198,0.025,0.297,0.025
				c0.726,0.165,1.395,0.288,2.005,0.371c0.611,0.082,0.933,0.141,0.965,0.174c0.199,0.032,0.404,0.065,0.619,0.099
				s0.421,0.066,0.619,0.101c0.198,0,0.404,0.007,0.62,0.024c0.214,0.017,0.42,0.023,0.619,0.023c3.367,0,6.379-1.146,9.038-3.441
				c2.657-2.293,4.299-5.256,4.927-8.886l1.684-9.557c0.099-0.726,0.619-1.32,1.56-1.782c0.94-0.464,1.972-0.76,3.094-0.893
				c0.231-0.032,0.454-0.058,0.668-0.074c0.215-0.017,0.438-0.025,0.67-0.025c0.331,0,0.645,0.018,0.942,0.05
				c0.297,0.033,0.562,0.084,0.793,0.148l-2.678-11.735C139.706,185.839,139.311,185.789,138.914,185.756z M144.662,196.897h7.726
				v24.46h12.281v-24.46h7.527v-10.202h-27.534V196.897z M190.816,186.695c-5.019,0-9.335,1.75-12.95,5.25
				c-3.614,3.499-5.423,7.726-5.423,12.677c0,4.919,1.809,9.11,5.423,12.577c3.615,3.466,7.932,5.199,12.95,5.199
				c5.052,0,9.376-1.733,12.975-5.199c3.599-3.467,5.398-7.658,5.398-12.577c0-4.951-1.8-9.178-5.398-12.677
				C200.192,188.445,195.868,186.695,190.816,186.695z M194.061,210.241c-0.908,1.536-1.989,2.303-3.244,2.303
				s-2.327-0.767-3.219-2.303c-0.892-1.535-1.337-3.407-1.337-5.619c0-2.211,0.445-4.109,1.337-5.693
				c0.892-1.585,1.964-2.378,3.219-2.378s2.336,0.793,3.244,2.378c0.908,1.584,1.361,3.482,1.361,5.693
				C195.422,206.834,194.969,208.706,194.061,210.241z M215.404,192.267c-3.22,3.384-4.828,7.453-4.828,12.206
				c0,4.786,1.608,8.873,4.828,12.255c3.218,3.384,7.106,5.092,11.661,5.125h14.462v-11.338h-10.103
				c-1.618,0-3.014-0.595-4.185-1.782c-1.173-1.189-1.759-2.608-1.759-4.26c0-1.649,0.586-3.062,1.759-4.233
				c1.171-1.17,2.566-1.757,4.185-1.757h10.103V187.19h-14.462C222.511,187.19,218.622,188.883,215.404,192.267z M275.003,208.335
				c-0.594-0.23-1.163-0.478-1.709-0.742c-0.544-0.264-1.048-0.545-1.51-0.842c-0.033,0-0.058-0.008-0.074-0.025
				c-0.018-0.016-0.042-0.04-0.074-0.073c-0.727-0.495-1.403-1.081-2.029-1.758c-0.629-0.676-0.941-1.56-0.941-2.648l8.418-8.419
				l-7.625-7.577l-11.49,11.736V187.19h-13.271v34.662h13.271v-14.161c0.562,2.278,1.436,4.292,2.625,6.041
				c1.188,1.751,2.607,3.201,4.259,4.357c1.684,1.187,3.557,2.096,5.62,2.724c2.063,0.626,4.218,0.957,6.463,0.989v-12.675
				c-0.297-0.133-0.61-0.265-0.94-0.396C275.663,208.6,275.334,208.467,275.003,208.335z"/>
		</g>
	</g>
	<g>
		<path d="M11.789,229.797c0.563,0.423,0.845,1.05,0.845,1.88c0,0.867-0.276,1.521-0.829,1.963
			c-0.553,0.441-1.292,0.661-2.219,0.661H8.753v2.569H6.929v-7.707H9.42C10.436,229.163,11.225,229.374,11.789,229.797z
			 M10.416,232.683c0.226-0.203,0.339-0.539,0.339-1.006c0-0.809-0.452-1.212-1.356-1.212H8.753v2.524h0.678
			C9.861,232.989,10.189,232.887,10.416,232.683z"/>
		<path d="M23.283,230.03c0.611,0.705,0.917,1.698,0.917,2.98c0,0.838-0.139,1.562-0.417,2.169
			c-0.278,0.608-0.679,1.073-1.201,1.396c-0.523,0.322-1.144,0.484-1.863,0.484c-0.719,0-1.338-0.16-1.857-0.479
			s-0.917-0.78-1.195-1.385c-0.278-0.604-0.417-1.332-0.417-2.186c0-0.83,0.139-1.549,0.417-2.157
			c0.278-0.607,0.676-1.073,1.195-1.396s1.138-0.483,1.857-0.483C21.816,228.975,22.671,229.326,23.283,230.03z M19.546,230.948
			c-0.256,0.427-0.384,1.114-0.384,2.062c0,0.949,0.13,1.639,0.389,2.069c0.26,0.43,0.649,0.645,1.168,0.645
			c0.534,0,0.929-0.213,1.184-0.64c0.256-0.426,0.384-1.117,0.384-2.074c0-0.956-0.13-1.646-0.389-2.068
			c-0.26-0.423-0.652-0.634-1.179-0.634C20.192,230.309,19.802,230.521,19.546,230.948z"/>
		<path d="M34.348,229.98c0.73,0.545,1.096,1.544,1.096,2.997c0,1.432-0.356,2.438-1.068,3.02s-1.635,0.873-2.769,0.873h-2.313
			v-7.707h2.146C32.648,229.163,33.617,229.436,34.348,229.98z M31.117,235.547h0.601c0.601,0,1.056-0.188,1.368-0.562
			c0.312-0.375,0.467-1.044,0.467-2.008c0-0.659-0.078-1.171-0.234-1.534s-0.367-0.613-0.634-0.751
			c-0.267-0.137-0.597-0.206-0.99-0.206h-0.578V235.547z"/>
		<path d="M44.968,229.186c0.374,0.141,0.728,0.353,1.062,0.634l-0.89,1.057c-0.43-0.371-0.89-0.557-1.379-0.557
			c-0.511,0-0.917,0.221-1.217,0.662c-0.3,0.441-0.451,1.114-0.451,2.019c0,0.897,0.15,1.562,0.451,1.996
			c0.3,0.434,0.717,0.65,1.251,0.65c0.274,0,0.524-0.056,0.75-0.166c0.226-0.111,0.477-0.271,0.751-0.479l0.823,1.067
			c-0.282,0.282-0.63,0.518-1.045,0.706c-0.415,0.189-0.871,0.284-1.368,0.284c-0.712,0-1.331-0.156-1.857-0.468
			s-0.936-0.772-1.229-1.385c-0.293-0.611-0.439-1.347-0.439-2.207c0-0.838,0.15-1.561,0.45-2.169
			c0.3-0.607,0.712-1.069,1.234-1.384c0.523-0.315,1.118-0.473,1.785-0.473C44.154,228.975,44.594,229.045,44.968,229.186z"/>
		<path d="M52.347,235.213l-0.389,1.657h-1.891l2.324-7.707h2.213l2.324,7.707h-1.935l-0.389-1.657H52.347z M53.47,230.486
			l-0.812,3.403h1.624L53.47,230.486z"/>
		<path d="M65.487,229.219c0.426,0.163,0.813,0.411,1.162,0.745l-0.856,0.99c-0.519-0.431-1.079-0.646-1.679-0.646
			c-0.319,0-0.571,0.065-0.756,0.194c-0.186,0.13-0.278,0.317-0.278,0.562c0,0.171,0.041,0.311,0.122,0.418s0.226,0.209,0.434,0.306
			c0.208,0.096,0.519,0.211,0.935,0.345c0.786,0.252,1.364,0.562,1.735,0.929c0.371,0.366,0.556,0.888,0.556,1.562
			c0,0.481-0.122,0.906-0.367,1.273c-0.245,0.366-0.597,0.652-1.057,0.855c-0.46,0.204-1.005,0.307-1.635,0.307
			c-0.63,0-1.188-0.101-1.674-0.301c-0.485-0.2-0.902-0.467-1.251-0.801l0.934-1.023c0.571,0.512,1.216,0.768,1.935,0.768
			c0.378,0,0.677-0.083,0.896-0.25c0.218-0.167,0.328-0.398,0.328-0.695c0-0.192-0.041-0.354-0.123-0.483s-0.223-0.246-0.422-0.351
			c-0.2-0.104-0.49-0.215-0.868-0.333c-0.853-0.26-1.459-0.579-1.818-0.957c-0.36-0.378-0.54-0.856-0.54-1.435
			c0-0.444,0.119-0.836,0.356-1.173c0.237-0.338,0.567-0.597,0.99-0.778c0.423-0.182,0.901-0.272,1.435-0.272
			C64.558,228.975,65.06,229.056,65.487,229.219z"/>
		<path d="M74.945,230.564v6.306h-1.824v-6.306H71.13v-1.401h5.894l-0.178,1.401H74.945z"/>
		<path d="M93.039,232.5v1.356H91.36v1.734h-1.457v-1.734h-1.69V232.5h1.69v-1.735h1.457v1.735H93.039z"/>
		<path d="M106.773,230.465v2.046h2.246v1.301h-2.246v3.059h-1.824v-7.707h4.593l-0.189,1.302H106.773z"/>
		<path d="M116.193,230.465v1.846h2.369v1.279h-2.369v1.968h2.902v1.312h-4.727v-7.707h4.727l-0.189,1.302H116.193z"/>
		<path d="M128.209,229.219c0.426,0.163,0.813,0.411,1.162,0.745l-0.856,0.99c-0.519-0.431-1.079-0.646-1.679-0.646
			c-0.319,0-0.571,0.065-0.756,0.194c-0.186,0.13-0.278,0.317-0.278,0.562c0,0.171,0.041,0.311,0.122,0.418s0.226,0.209,0.434,0.306
			c0.208,0.096,0.519,0.211,0.935,0.345c0.786,0.252,1.364,0.562,1.735,0.929c0.371,0.366,0.556,0.888,0.556,1.562
			c0,0.481-0.122,0.906-0.367,1.273c-0.245,0.366-0.597,0.652-1.057,0.855c-0.46,0.204-1.005,0.307-1.635,0.307
			c-0.63,0-1.188-0.101-1.674-0.301c-0.485-0.2-0.902-0.467-1.251-0.801l0.934-1.023c0.571,0.512,1.216,0.768,1.935,0.768
			c0.378,0,0.677-0.083,0.896-0.25c0.218-0.167,0.328-0.398,0.328-0.695c0-0.192-0.041-0.354-0.123-0.483s-0.223-0.246-0.422-0.351
			c-0.2-0.104-0.49-0.215-0.868-0.333c-0.853-0.26-1.459-0.579-1.818-0.957c-0.36-0.378-0.54-0.856-0.54-1.435
			c0-0.444,0.119-0.836,0.356-1.173c0.237-0.338,0.567-0.597,0.99-0.778c0.423-0.182,0.901-0.272,1.435-0.272
			C127.281,228.975,127.783,229.056,128.209,229.219z"/>
		<path d="M137.667,230.564v6.306h-1.824v-6.306h-1.991v-1.401h5.894l-0.178,1.401H137.667z"/>
		<path d="M144.481,236.87v-7.707h1.824v7.707H144.481z"/>
		<path d="M153.111,236.87l-2.225-7.707h1.924l1.468,6.283l1.379-6.283h1.869l-2.146,7.707H153.111z"/>
		<path d="M163.009,235.213l-0.389,1.657h-1.891l2.324-7.707h2.213l2.324,7.707h-1.935l-0.39-1.657H163.009z M164.133,230.486
			l-0.812,3.403h1.624L164.133,230.486z"/>
		<path d="M176.988,235.425l-0.189,1.445h-4.638v-7.707h1.824v6.262H176.988z"/>
		<path d="M193.146,232.5v1.356h-1.68v1.734h-1.456v-1.734h-1.69V232.5h1.69v-1.735h1.456v1.735H193.146z"/>
		<path d="M210.412,233.355c0.322,0.282,0.483,0.705,0.483,1.269c0,0.822-0.295,1.402-0.884,1.74
			c-0.59,0.337-1.415,0.506-2.475,0.506h-2.48v-7.707h2.18c1.083,0,1.909,0.154,2.48,0.462c0.57,0.308,0.856,0.81,0.856,1.507
			c0,0.452-0.136,0.817-0.406,1.096c-0.271,0.277-0.606,0.465-1.007,0.562C209.672,232.885,210.089,233.074,210.412,233.355z
			 M206.881,232.244h0.679c0.771,0,1.156-0.312,1.156-0.935c0-0.312-0.104-0.532-0.312-0.662c-0.208-0.129-0.538-0.194-0.99-0.194
			h-0.533V232.244z M208.644,235.33c0.248-0.145,0.372-0.413,0.372-0.807c0-0.712-0.444-1.067-1.334-1.067h-0.801v2.091h0.667
			C208.03,235.547,208.395,235.475,208.644,235.33z"/>
		<path d="M217.112,235.213l-0.389,1.657h-1.891l2.324-7.707h2.213l2.324,7.707h-1.935l-0.39-1.657H217.112z M218.236,230.486
			l-0.812,3.403h1.624L218.236,230.486z"/>
		<path d="M228.089,233.923v2.947h-1.824v-7.707h2.524c1.053,0,1.845,0.193,2.375,0.578c0.529,0.386,0.795,0.976,0.795,1.769
			c0,0.497-0.119,0.908-0.356,1.234s-0.611,0.608-1.123,0.846l1.958,3.28h-2.058l-1.579-2.947H228.089z M228.856,232.666
			c0.407,0,0.713-0.093,0.917-0.277c0.204-0.186,0.306-0.479,0.306-0.879c0-0.371-0.109-0.642-0.328-0.812
			c-0.219-0.171-0.554-0.256-1.006-0.256h-0.656v2.224H228.856z"/>
		<path d="M241.451,229.186c0.375,0.141,0.729,0.353,1.062,0.634l-0.89,1.057c-0.431-0.371-0.89-0.557-1.379-0.557
			c-0.512,0-0.918,0.221-1.218,0.662c-0.301,0.441-0.45,1.114-0.45,2.019c0,0.897,0.149,1.562,0.45,1.996
			c0.3,0.434,0.717,0.65,1.251,0.65c0.274,0,0.524-0.056,0.751-0.166c0.226-0.111,0.476-0.271,0.75-0.479l0.823,1.067
			c-0.282,0.282-0.63,0.518-1.045,0.706c-0.416,0.189-0.872,0.284-1.368,0.284c-0.712,0-1.331-0.156-1.857-0.468
			s-0.937-0.772-1.229-1.385c-0.293-0.611-0.439-1.347-0.439-2.207c0-0.838,0.15-1.561,0.45-2.169
			c0.3-0.607,0.712-1.069,1.234-1.384c0.522-0.315,1.118-0.473,1.785-0.473C240.638,228.975,241.077,229.045,241.451,229.186z"/>
		<path d="M248.829,235.213l-0.389,1.657h-1.891l2.324-7.707h2.213l2.324,7.707h-1.935l-0.39-1.657H248.829z M249.953,230.486
			l-0.812,3.403h1.624L249.953,230.486z"/>
		<path d="M263.844,236.87l-0.134-3.014c-0.037-0.741-0.056-1.401-0.056-1.979c0-0.415,0.011-0.805,0.033-1.168l-1.189,5.35h-1.724
			l-1.269-5.35c0.045,0.652,0.067,1.275,0.067,1.868c0,0.423-0.012,0.856-0.033,1.302l-0.134,2.991h-1.779l0.578-7.707h2.302
			l1.157,5.227l1.078-5.227h2.313l0.578,7.707H263.844z"/>
		<path d="M275.665,229.797c0.563,0.423,0.845,1.05,0.845,1.88c0,0.867-0.276,1.521-0.828,1.963
			c-0.553,0.441-1.292,0.661-2.219,0.661h-0.834v2.569h-1.824v-7.707h2.491C274.312,229.163,275.102,229.374,275.665,229.797z
			 M274.291,232.683c0.227-0.203,0.34-0.539,0.34-1.006c0-0.809-0.452-1.212-1.357-1.212h-0.645v2.524h0.679
			C273.737,232.989,274.065,232.887,274.291,232.683z"/>
	</g>
</g>
</svg>
